<?xml version="1.0" encoding="UTF-8"?>
<svg version="1.1" xmlns="http://www.w3.org/2000/svg" width="600" height="600">
<path d="M0 0 C198 0 396 0 600 0 C600 198 600 396 600 600 C402 600 204 600 0 600 C0 402 0 204 0 0 Z " fill="#306321" transform="translate(0,0)"/>
<path d="M0 0 C14.45603218 -0.39540904 28.910761 -0.69669969 43.37111664 -0.88080692 C50.08748951 -0.96807125 56.79991271 -1.08891772 63.51416016 -1.2824707 C70.00493871 -1.4683919 76.49216005 -1.56906978 82.98539734 -1.61291313 C85.45122771 -1.64411659 87.91688194 -1.70505793 90.38117981 -1.79741096 C110.66557707 -2.52675285 110.66557707 -2.52675285 118.0078125 3.71975708 C121.53861229 7.22613758 124.5890517 11.0021513 127.51293945 15.0222187 C129.48576237 17.64606093 131.67433692 19.81500842 134.0625 22.0625 C136.60230114 24.51638821 138.94255744 27.072637 141.24609375 29.74609375 C144.97188806 34.03539523 148.94564628 38.02331589 153 42 C154.35672297 43.3307321 155.71090465 44.6640602 157.0625 46 C157.65160156 46.5775 158.24070312 47.155 158.84765625 47.75 C160.70167149 49.68813572 162.45016426 51.66751665 164.19921875 53.69921875 C168.18256824 58.27835256 172.43695232 62.54574702 176.75 66.8125 C177.56694336 67.62565674 178.38388672 68.43881348 179.22558594 69.27661133 C181.81462671 71.85353297 184.40688737 74.42717625 187 77 C190.41962719 80.39287153 193.83582149 83.78914657 197.25 87.1875 C198.02311523 87.95231689 198.79623047 88.71713379 199.59277344 89.50512695 C203.64026183 93.53449095 207.48182899 97.65671768 211.20800781 101.9831543 C214.5577239 105.75318217 218.1660317 109.26700072 221.75 112.8125 C222.56694336 113.62565674 223.38388672 114.43881348 224.22558594 115.27661133 C226.81462671 117.85353297 229.40688737 120.42717625 232 123 C235.41962719 126.39287153 238.83582149 129.78914657 242.25 133.1875 C243.02311523 133.95231689 243.79623047 134.71713379 244.59277344 135.50512695 C248.01479332 138.91182325 251.3475279 142.34016589 254.49829102 146.00048828 C258.37030562 150.49649009 262.55251428 154.64234191 266.77734375 158.8046875 C268.44088312 160.45560029 270.10429088 162.1066457 271.76757812 163.7578125 C274.36866192 166.33392628 276.97133041 168.90840162 279.57641602 171.48046875 C282.10603361 173.98007033 284.62954984 176.48570187 287.15234375 178.9921875 C288.33339943 180.15305374 288.33339943 180.15305374 289.53831482 181.33737183 C290.61557579 182.40956467 290.61557579 182.40956467 291.71459961 183.50341797 C292.3507872 184.13214813 292.98697479 184.7608783 293.6424408 185.40866089 C295 187 295 187 295 189 C296.32 189 297.64 189 299 189 C299 134.55 299 80.1 299 24 C296.69 23.67 294.38 23.34 292 23 C289.92326221 22.34788427 287.8658834 21.63105896 285.83203125 20.85546875 C284.69056641 20.42556641 283.54910156 19.99566406 282.37304688 19.55273438 C280.61057617 18.87694336 280.61057617 18.87694336 278.8125 18.1875 C270.26206189 14.93995491 261.70283692 11.81752235 253 9 C253 6.03 253 3.06 253 0 C291.28 0 329.56 0 369 0 C369 2.97 369 5.94 369 9 C367.98164063 9.34780518 366.96328125 9.69561035 365.9140625 10.05395508 C362.10424525 11.35549293 358.2949659 12.65859901 354.48583984 13.9621582 C352.84308056 14.52410385 351.20017937 15.08563483 349.55712891 15.64672852 C347.18353652 16.45738165 344.81047338 17.26956819 342.4375 18.08203125 C341.71320801 18.32903275 340.98891602 18.57603424 340.24267578 18.83052063 C336.68608574 20.04982427 333.16409613 21.3185034 329.66015625 22.68237305 C326 24 326 24 323 24 C323 111.45 323 198.9 323 289 C311.78 289 300.56 289 289 289 C281.25694444 281.25694444 281.25694444 281.25694444 278.65625 278.15625 C274.51405239 273.35758804 270.01570526 268.94436711 265.5 264.5 C263.86208036 262.88795587 262.22662734 261.27340139 260.59375 259.65625 C259.87896484 258.95306641 259.16417969 258.24988281 258.42773438 257.52539062 C256.48236083 255.50176392 254.65057998 253.4509434 252.82322598 251.32379723 C249.17477799 247.14403004 245.33504827 243.20321814 241.40065002 239.29385376 C240.66779673 238.56155717 239.93494344 237.82926059 239.17988247 237.07477319 C236.74411821 234.64202483 234.30479802 232.21287448 231.86547852 229.78369141 C230.11054317 228.03231514 228.35584452 226.28070167 226.60136414 224.52886963 C222.83396061 220.7679991 219.0650985 217.00859947 215.29501534 213.2504158 C209.84322331 207.81565127 204.39518823 202.3771325 198.94823729 196.9375165 C190.10775976 188.10896022 181.26577356 179.28191692 172.42211914 170.45654297 C171.89374822 169.92926217 171.3653773 169.40198138 170.82099514 168.85872237 C163.30611905 161.35949002 155.78976565 153.86174004 148.27283853 146.36456363 C147.74234527 145.83546369 147.21185201 145.30636374 146.6652832 144.76123047 C145.87051398 143.96855154 145.87051398 143.96855154 145.05968881 143.1598589 C136.23723963 134.3604133 127.4186271 125.55713436 118.60317367 116.75068033 C113.16684939 111.32021662 107.72728105 105.89304256 102.28353708 100.47001652 C98.12209351 96.32385182 93.9657826 92.17256888 89.81140327 88.01932526 C88.10223187 86.31231106 86.39132686 84.60703073 84.67861557 82.90356827 C82.35130078 80.58834215 80.03012847 78.26713205 77.71046448 75.94424438 C77.02265052 75.26293823 76.33483656 74.58163207 75.62617975 73.87968028 C75.01045223 73.26058736 74.39472471 72.64149444 73.76033878 72.00364113 C72.95494792 71.20020254 72.95494792 71.20020254 72.13328654 70.38053286 C71 69 71 69 71 67 C69.68 67 68.36 67 67 67 C67 132.34 67 197.68 67 265 C68.32 265.33 69.64 265.66 71 266 C73.77723479 266.95073591 76.5443861 267.91907028 79.30859375 268.90625 C80.95895452 269.49096969 82.6093461 270.07560243 84.25976562 270.66015625 C86.85177571 271.58059134 89.44339458 272.50210026 92.03442383 273.42529297 C94.54143871 274.31774548 97.04991522 275.20598671 99.55859375 276.09375 C100.32956894 276.36981079 101.10054413 276.64587158 101.8948822 276.93029785 C105.5771712 278.23098775 109.12924895 279.37523711 113 280 C113 282.97 113 285.94 113 289 C74.72 289 36.44 289 -3 289 C-3 286.36 -3 283.72 -3 281 C5.68824796 277.21305488 14.50286538 273.97649229 23.46728516 270.9230957 C25.65845179 270.17609581 27.84688127 269.42143944 30.03515625 268.66601562 C31.43213827 268.18705236 32.82926811 267.70851997 34.2265625 267.23046875 C35.20455307 266.8930793 35.20455307 266.8930793 36.20230103 266.5488739 C40.76932182 265 40.76932182 265 43 265 C43 185.14 43 105.28 43 23 C41.02 22.67 39.04 22.34 37 22 C35.10712756 21.40459954 33.22901864 20.76055146 31.3671875 20.07421875 C30.31273437 19.68943359 29.25828125 19.30464844 28.171875 18.90820312 C27.08390625 18.50537109 25.9959375 18.10253906 24.875 17.6875 C16.62437269 14.65594384 8.35530173 11.73157706 0 9 C0 6.03 0 3.06 0 0 Z " fill="#FDFDFC" transform="translate(116,156)"/>
<path d="M0 0 C1.32 0 2.64 0 4 0 C4.33 1.65 4.66 3.3 5 5 C3.68 5.99 2.36 6.98 1 8 C0.67 5.36 0.34 2.72 0 0 Z " fill="#3A6A2C" transform="translate(183,223)"/>
<path d="M0 0 C2.31 0.66 4.62 1.32 7 2 C7 2.99 7 3.98 7 5 C4.6875 5.625 4.6875 5.625 2 6 C1.01 5.34 0.02 4.68 -1 4 C-0.67 2.68 -0.34 1.36 0 0 Z " fill="#376728" transform="translate(129,169)"/>
</svg>
